<svg width="200" height="150" viewBox="0 0 122 98" fill="none" xmlns="http://www.w3.org/2000/svg">
<rect x="24" width="75" height="75" rx="20" fill="#B6CAFB"/>
<path d="M72.4836 23.9667C72.4836 23.5065 72.1105 23.1334 71.6502 23.1334H66.6502C66.19 23.1334 65.8169 23.5065 65.8169 23.9667C65.8169 24.4269 66.19 24.8 66.6502 24.8H71.6502C71.8712 24.8 72.0832 24.7122 72.2395 24.556C72.3958 24.3997 72.4836 24.1877 72.4836 23.9667Z" fill="#3D3D63"/>
<path fill-rule="evenodd" clip-rule="evenodd" d="M81.3581 53.3167H80.0331C80.1083 53.0313 80.1253 52.7337 80.0831 52.4417L77.8414 37.875C77.6268 36.4586 76.4074 35.4129 74.9748 35.4167H69.9748V30.9167H71.6414C71.8629 30.918 72.0758 30.831 72.2331 30.675L75.8164 27.0917C75.9755 26.9358 76.0655 26.7227 76.0664 26.5V21.4333C76.0655 21.2106 75.9755 20.9976 75.8164 20.8417L72.2331 17.2583C72.0758 17.1024 71.8629 17.0154 71.6414 17.0167H66.6248C66.4033 17.0154 66.1904 17.1024 66.0331 17.2583L62.4498 20.8417C62.2938 20.9989 62.2068 21.2118 62.2081 21.4333V26.5C62.2068 26.7215 62.2938 26.9344 62.4498 27.0917L66.0331 30.675C66.1928 30.8273 66.4041 30.9136 66.6248 30.9167H68.2914V35.4167H55.1081C53.6742 35.4093 52.4528 36.4567 52.2414 37.875L52.0081 39.3333H49.2831C48.8229 39.3333 48.4498 39.7064 48.4498 40.1667C48.4498 40.6269 48.8229 41 49.2831 41H51.7831L49.9998 52.4417C49.9534 52.7336 49.9705 53.032 50.0498 53.3167H48.5831L46.9164 44.15C46.7839 43.4106 46.1427 42.871 45.3914 42.8667V42.4917C46.6741 42.0811 47.4665 40.7974 47.2587 39.4668C47.0509 38.1361 45.9049 37.1551 44.5581 37.1551C43.2113 37.1551 42.0653 38.1361 41.8575 39.4668C41.6497 40.7974 42.4421 42.0811 43.7248 42.4917V42.8667C42.9748 42.8743 42.3354 43.4123 42.1998 44.15L40.5331 53.3167H39.1414C38.6812 53.3167 38.3081 53.6898 38.3081 54.15C38.3081 54.6102 38.6812 54.9833 39.1414 54.9833H81.3581C81.8183 54.9833 82.1914 54.6102 82.1914 54.15C82.1914 53.6898 81.8183 53.3167 81.3581 53.3167ZM43.4914 39.8667C43.5404 39.3118 44.0052 38.8862 44.5623 38.8862C45.1193 38.8862 45.5841 39.3118 45.6331 39.8667C45.6689 40.2718 45.473 40.6624 45.1269 40.876C44.7808 41.0896 44.3438 41.0896 43.9977 40.876C43.6516 40.6624 43.4557 40.2718 43.4914 39.8667ZM45.6748 46.6083L45.2914 44.5083H43.8248L43.6581 45.4417L45.6748 46.6083ZM43.3414 47.1833L46.0831 48.7583L46.4581 50.8333L43.0331 48.8667L43.3414 47.1833ZM46.8664 52.9833L42.7498 50.6083L42.2248 53.3167H46.9331L46.8664 52.9833ZM77.1248 43.9417L78.0331 49.85H52.0748L52.9914 43.9417H77.1248ZM63.8748 26.1583L66.9748 29.25H71.3498L74.4164 26.1583V21.775L71.3498 18.6833H66.9748L63.8748 21.775V26.1583ZM55.1081 37.0833H74.9748C75.5826 37.0806 76.1005 37.524 76.1914 38.125L76.8331 42.2917H53.2414L53.8831 38.125C53.9778 37.5227 54.4984 37.0801 55.1081 37.0833ZM77.8914 53.3167C78.0505 53.3197 78.2029 53.2527 78.3081 53.1333C78.4184 53.0048 78.4644 52.8331 78.4331 52.6667L78.2581 51.5417H51.8248L51.6414 52.6917C51.6179 52.85 51.6634 53.0108 51.7664 53.1333C51.8742 53.2492 52.0249 53.3155 52.1831 53.3167H77.8914Z" fill="#3D3D63"/>
<path d="M61.5583 46.9583L60.95 47.575C60.6669 47.9056 60.6859 48.3985 60.9937 48.7063C61.3015 49.0141 61.7944 49.0331 62.125 48.75L63.325 47.55C63.6481 47.225 63.6481 46.7 63.325 46.375L62.05 45.0917C61.8386 44.8803 61.5305 44.7977 61.2418 44.8751C60.953 44.9525 60.7275 45.178 60.6501 45.4668C60.5727 45.7555 60.6553 46.0636 60.8667 46.275L61.5583 46.9583Z" fill="#3D3D63"/>
<path d="M55.675 46.9584L55.0667 47.575C54.8289 47.7787 54.7253 48.0985 54.7985 48.4029C54.8717 48.7073 55.1094 48.945 55.4138 49.0182C55.7183 49.0914 56.038 48.9878 56.2417 48.75L57.4417 47.55C57.7648 47.225 57.7648 46.7001 57.4417 46.375L56.1667 45.0917C55.8399 44.7649 55.3101 44.7649 54.9834 45.0917C54.6566 45.4185 54.6566 45.9483 54.9834 46.275L55.675 46.9584Z" fill="#3D3D63"/>
<path d="M67.4416 46.9583L66.8333 47.575C66.5502 47.9056 66.5692 48.3985 66.877 48.7063C67.1848 49.0141 67.6777 49.0331 68.0083 48.75L69.2083 47.55C69.5314 47.225 69.5314 46.7 69.2083 46.375L67.9333 45.0917C67.7219 44.8803 67.4138 44.7977 67.1251 44.8751C66.8363 44.9525 66.6108 45.178 66.5334 45.4668C66.456 45.7555 66.5386 46.0636 66.75 46.275L67.4416 46.9583Z" fill="#3D3D63"/>
<path d="M73.3249 46.9584L72.7166 47.575C72.4334 47.9057 72.4525 48.3985 72.7603 48.7063C73.0681 49.0141 73.561 49.0332 73.8916 48.75L75.0916 47.55C75.4147 47.225 75.4147 46.7001 75.0916 46.375L73.8166 45.0917C73.4898 44.7649 72.96 44.7649 72.6333 45.0917C72.3065 45.4185 72.3065 45.9483 72.6333 46.275L73.3249 46.9584Z" fill="#3D3D63"/>
<path fill-rule="evenodd" clip-rule="evenodd" d="M45.5667 35.65C46.027 35.65 46.4001 35.2769 46.4001 34.8167V33.9167H59.4167C59.877 33.9167 60.2501 33.5436 60.2501 33.0833C60.2501 32.6231 59.877 32.25 59.4167 32.25H58.1834L55.6417 29.4C55.1667 28.8689 54.4876 28.5657 53.7751 28.5667C53.0625 28.5657 52.3834 28.8689 51.9084 29.4L51.4084 29.9583C50.5926 29.3352 49.4395 29.4211 48.7251 30.1583L46.8667 32.25H45.5667C45.1065 32.25 44.7334 32.6231 44.7334 33.0833V34.8167C44.7334 35.2769 45.1065 35.65 45.5667 35.65ZM53.1584 30.5083C53.3159 30.3338 53.5399 30.2339 53.7751 30.2333C54.0131 30.2315 54.2406 30.3316 54.4001 30.5083L55.9501 32.25H53.4917L52.5501 31.1917L53.1584 30.5083ZM50.3917 31.2667C50.2417 31.1083 50.1167 31.1083 49.9751 31.2667L49.0584 32.25H51.2251L50.3917 31.2667Z" fill="#3D3D63"/>
<path d="M62.2332 33.9167H63.8999C64.3601 33.9167 64.7332 33.5436 64.7332 33.0833C64.7332 32.6231 64.3601 32.25 63.8999 32.25H62.2332C61.773 32.25 61.3999 32.6231 61.3999 33.0833C61.3999 33.5436 61.773 33.9167 62.2332 33.9167Z" fill="#3D3D63"/>
<path d="M60.1248 40.525H69.9582C70.4184 40.525 70.7915 40.1519 70.7915 39.6917C70.7915 39.2314 70.4184 38.8583 69.9582 38.8583H60.1248C59.6646 38.8583 59.2915 39.2314 59.2915 39.6917C59.2915 40.1519 59.6646 40.525 60.1248 40.525Z" fill="#3D3D63"/>
<path d="M5.558 93.196C4.09267 93.196 2.87467 92.706 1.904 91.726C0.942667 90.7553 0.462 89.5467 0.462 88.1C0.462 86.644 0.942667 85.4353 1.904 84.474C2.87467 83.494 4.09267 83.004 5.558 83.004C6.44467 83.004 7.26133 83.214 8.008 83.634C8.764 84.0447 9.352 84.6047 9.772 85.314L8.106 86.28C7.86333 85.8413 7.518 85.5007 7.07 85.258C6.622 85.006 6.118 84.88 5.558 84.88C4.606 84.88 3.836 85.1787 3.248 85.776C2.66933 86.3827 2.38 87.1573 2.38 88.1C2.38 89.0333 2.66933 89.8033 3.248 90.41C3.836 91.0073 4.606 91.306 5.558 91.306C6.118 91.306 6.622 91.1847 7.07 90.942C7.52733 90.69 7.87267 90.3493 8.106 89.92L9.772 90.886C9.352 91.5953 8.764 92.16 8.008 92.58C7.26133 92.9907 6.44467 93.196 5.558 93.196ZM10.2982 86H16.5002V87.736H14.3162V93H12.5102V87.736H10.2982V86ZM21.5387 85.804C22.4813 85.804 23.284 86.1633 23.9467 86.882C24.6187 87.6007 24.9547 88.4733 24.9547 89.5C24.9547 90.5453 24.6187 91.4227 23.9467 92.132C23.2933 92.8413 22.4907 93.196 21.5387 93.196C20.5587 93.196 19.8027 92.8553 19.2707 92.174V95.8H17.4647V86H19.2707V86.826C19.8027 86.1447 20.5587 85.804 21.5387 85.804ZM19.8167 90.928C20.1807 91.292 20.6427 91.474 21.2027 91.474C21.7627 91.474 22.2247 91.292 22.5887 90.928C22.962 90.5547 23.1487 90.0787 23.1487 89.5C23.1487 88.9213 22.962 88.45 22.5887 88.086C22.2247 87.7127 21.7627 87.526 21.2027 87.526C20.6427 87.526 20.1807 87.7127 19.8167 88.086C19.4527 88.45 19.2707 88.9213 19.2707 89.5C19.2707 90.0787 19.4527 90.5547 19.8167 90.928ZM32.1923 92.132C31.483 92.8413 30.6057 93.196 29.5603 93.196C28.515 93.196 27.6377 92.8413 26.9283 92.132C26.219 91.4227 25.8643 90.5453 25.8643 89.5C25.8643 88.464 26.219 87.5913 26.9283 86.882C27.647 86.1633 28.5243 85.804 29.5603 85.804C30.5963 85.804 31.4737 86.1633 32.1923 86.882C32.911 87.6007 33.2703 88.4733 33.2703 89.5C33.2703 90.536 32.911 91.4133 32.1923 92.132ZM28.2023 90.886C28.5663 91.25 29.019 91.432 29.5603 91.432C30.1017 91.432 30.5543 91.25 30.9183 90.886C31.2823 90.522 31.4643 90.06 31.4643 89.5C31.4643 88.94 31.2823 88.478 30.9183 88.114C30.5543 87.75 30.1017 87.568 29.5603 87.568C29.019 87.568 28.5663 87.75 28.2023 88.114C27.8477 88.4873 27.6703 88.9493 27.6703 89.5C27.6703 90.0507 27.8477 90.5127 28.2023 90.886ZM39.7768 85.104H35.7168V83.536H39.7768V85.104ZM36.3048 89.976L39.5948 86H40.9388V93H39.1748V89.024L35.8848 93H34.5408V86H36.3048V89.976ZM46.1496 89.458L49.0476 93H46.9476L44.3996 89.822V93H42.5936V86H44.3996V89.08L46.8076 86H48.9636L46.1496 89.458ZM54.7632 86.826V86H56.5692V93H54.7632V92.174C54.2219 92.8553 53.4612 93.196 52.4812 93.196C51.5479 93.196 50.7452 92.8413 50.0732 92.132C49.4105 91.4133 49.0792 90.536 49.0792 89.5C49.0792 88.4733 49.4105 87.6007 50.0732 86.882C50.7452 86.1633 51.5479 85.804 52.4812 85.804C53.4612 85.804 54.2219 86.1447 54.7632 86.826ZM51.4312 90.928C51.7952 91.292 52.2572 91.474 52.8172 91.474C53.3772 91.474 53.8392 91.292 54.2032 90.928C54.5765 90.5547 54.7632 90.0787 54.7632 89.5C54.7632 88.9213 54.5765 88.45 54.2032 88.086C53.8392 87.7127 53.3772 87.526 52.8172 87.526C52.2572 87.526 51.7952 87.7127 51.4312 88.086C51.0672 88.45 50.8852 88.9213 50.8852 89.5C50.8852 90.0787 51.0672 90.5547 51.4312 90.928ZM63.4709 89.976L66.7609 86H68.1049V93H66.3409V89.024L63.0509 93H61.7069V86H63.4709V89.976ZM77.3336 85.804C78.2763 85.804 79.0789 86.1633 79.7416 86.882C80.4136 87.6007 80.7496 88.4733 80.7496 89.5C80.7496 90.5453 80.4136 91.4227 79.7416 92.132C79.0883 92.8413 78.2856 93.196 77.3336 93.196C76.3536 93.196 75.5976 92.8553 75.0656 92.174V95.8H73.2596V86H75.0656V86.826C75.5976 86.1447 76.3536 85.804 77.3336 85.804ZM75.6116 90.928C75.9756 91.292 76.4376 91.474 76.9976 91.474C77.5576 91.474 78.0196 91.292 78.3836 90.928C78.7569 90.5547 78.9436 90.0787 78.9436 89.5C78.9436 88.9213 78.7569 88.45 78.3836 88.086C78.0196 87.7127 77.5576 87.526 76.9976 87.526C76.4376 87.526 75.9756 87.7127 75.6116 88.086C75.2476 88.45 75.0656 88.9213 75.0656 89.5C75.0656 90.0787 75.2476 90.5547 75.6116 90.928ZM88.8273 90.242H83.5493C83.7826 91.1193 84.4406 91.558 85.5233 91.558C86.2139 91.558 86.7366 91.3247 87.0913 90.858L88.5473 91.698C87.8566 92.6967 86.8393 93.196 85.4953 93.196C84.3379 93.196 83.4093 92.846 82.7093 92.146C82.0093 91.446 81.6593 90.564 81.6593 89.5C81.6593 88.4547 82.0046 87.5773 82.6953 86.868C83.3766 86.1587 84.2633 85.804 85.3553 85.804C86.3913 85.804 87.2359 86.1587 87.8893 86.868C88.5613 87.5773 88.8973 88.4547 88.8973 89.5C88.8973 89.696 88.8739 89.9433 88.8273 90.242ZM83.5213 88.842H87.0913C86.9886 88.3847 86.7786 88.0347 86.4613 87.792C86.1533 87.5493 85.7846 87.428 85.3553 87.428C84.8699 87.428 84.4686 87.554 84.1513 87.806C83.8339 88.0487 83.6239 88.394 83.5213 88.842ZM95.66 86H97.438V93H95.688V88.912L93.91 91.712H93.686L91.894 88.884V93H90.158V86H91.936L93.798 88.94L95.66 86ZM105.05 92.132C104.34 92.8413 103.463 93.196 102.418 93.196C101.372 93.196 100.495 92.8413 99.7858 92.132C99.0764 91.4227 98.7218 90.5453 98.7218 89.5C98.7218 88.464 99.0764 87.5913 99.7858 86.882C100.504 86.1633 101.382 85.804 102.418 85.804C103.454 85.804 104.331 86.1633 105.05 86.882C105.768 87.6007 106.128 88.4733 106.128 89.5C106.128 90.536 105.768 91.4133 105.05 92.132ZM101.06 90.886C101.424 91.25 101.876 91.432 102.418 91.432C102.959 91.432 103.412 91.25 103.776 90.886C104.14 90.522 104.322 90.06 104.322 89.5C104.322 88.94 104.14 88.478 103.776 88.114C103.412 87.75 102.959 87.568 102.418 87.568C101.876 87.568 101.424 87.75 101.06 88.114C100.705 88.4873 100.528 88.9493 100.528 89.5C100.528 90.0507 100.705 90.5127 101.06 90.886ZM111.99 88.646V86H113.796V93H111.99V90.34H109.204V93H107.398V86H109.204V88.646H111.99ZM114.765 86H120.967V87.736H118.783V93H116.977V87.736H114.765V86Z" fill="#4A4A4A"/>
</svg>
